<svg width="100%" height="100%" viewBox="0 0 800 800" version="1.1" xmlns="http://www.w3.org/2000/svg" xmlns:xlink="http://www.w3.org/1999/xlink" xml:space="preserve" xmlns:serif="http://www.serif.com/" style="fill-rule:evenodd;clip-rule:evenodd;stroke-linejoin:round;stroke-miterlimit:2;">
    <g>
        <path class="secondary" d="M682.171,116.256C607.297,41.331 507.737,0.046 401.663,0C183.081,0 5.2,177.825 5.112,396.397C5.087,466.265 23.342,534.466 58.041,594.583L1.783,800L211.999,744.878C269.918,776.465 335.13,793.11 401.493,793.136L401.663,793.136C620.21,793.136 798.119,615.28 798.211,396.718C798.248,290.788 757.035,191.187 682.171,116.256ZM401.663,726.183L401.535,726.183C342.382,726.152 284.376,710.271 233.78,680.248L221.739,673.111L96.992,705.817L130.298,584.235L122.453,571.77C89.457,519.306 72.038,458.677 72.063,396.423C72.136,214.752 219.984,66.956 401.788,66.956C489.827,66.992 572.574,101.309 634.806,163.584C697.035,225.86 731.281,308.646 731.254,396.69C731.177,578.366 583.324,726.183 401.663,726.183Z"/>
        <path class="primary" d="M19.987,777.207L73.675,581.174C40.553,523.802 23.134,458.711 23.155,392.048C23.242,183.465 193,13.768 401.579,13.768C502.813,13.813 597.827,53.211 669.264,124.715C740.717,196.219 780.043,291.264 780.002,392.344C779.915,600.933 610.147,770.645 401.594,770.645C401.579,770.645 401.605,770.645 401.594,770.645L401.426,770.645C338.095,770.625 275.866,754.727 220.597,724.605L19.987,777.207Z"/>
        <path class="secondary" d="M303.671,228.107C296.335,211.796 288.611,211.47 281.631,211.184C275.922,210.939 269.386,210.954 262.861,210.954C256.33,210.954 245.718,213.408 236.744,223.209C227.765,233.011 202.459,256.704 202.459,304.892C202.459,353.085 237.56,399.651 242.453,406.192C247.351,412.722 310.212,514.772 409.767,554.032C492.506,586.659 509.343,580.169 527.302,578.536C545.26,576.903 585.249,554.848 593.413,531.975C601.576,509.108 601.576,489.507 599.127,485.409C596.678,481.328 590.147,478.879 580.352,473.981C570.556,469.083 522.404,445.385 513.424,442.119C504.445,438.854 497.914,437.221 491.384,447.028C484.853,456.823 466.093,478.879 460.379,485.409C454.664,491.955 448.95,492.771 439.154,487.873C429.359,482.961 397.813,472.629 360.39,439.262C331.273,413.303 311.615,381.242 305.901,371.436C300.187,361.64 305.288,356.334 310.202,351.451C314.6,347.064 319.998,340.018 324.896,334.298C329.783,328.579 331.416,324.497 334.681,317.967C337.946,311.426 336.314,305.707 333.865,300.809C331.416,295.911 312.381,247.474 303.671,228.107Z"/>
        <path class="secondary" d="M678.932,114.997C604.917,40.931 506.5,0.121 401.645,0.074C185.571,0.074 9.732,175.858 9.645,391.921C9.619,460.987 27.665,528.405 61.966,587.832L6.354,790.891L214.158,736.401C271.412,767.625 335.875,784.079 401.477,784.105L401.645,784.105C617.683,784.105 793.548,608.291 793.64,392.237C793.676,287.525 752.936,189.067 678.932,114.997ZM401.645,717.922L401.518,717.922C343.044,717.892 285.703,702.193 235.688,672.515L223.785,665.459L100.47,697.79L133.393,577.603L125.638,565.282C93.021,513.42 75.802,453.487 75.828,391.947C75.899,212.363 222.05,66.263 401.768,66.263C488.798,66.299 570.592,100.221 632.112,161.782C693.626,223.343 727.478,305.178 727.452,392.213C727.375,571.802 581.219,717.922 401.645,717.922Z"/>
    </g>
</svg>