<svg width="100%" height="100%" viewBox="0 0 800 800" version="1.1" xmlns="http://www.w3.org/2000/svg" xmlns:xlink="http://www.w3.org/1999/xlink" xml:space="preserve" xmlns:serif="http://www.serif.com/" style="fill-rule:evenodd;clip-rule:evenodd;stroke-linejoin:round;stroke-miterlimit:2;">
    <path class="secondary" d="M285.65,403.825C268.525,403.825 254.65,390.1 254.65,373.175C254.65,356.25 268.525,342.525 285.65,342.525C302.775,342.525 316.65,356.25 316.65,373.175C316.65,390.075 302.775,403.825 285.65,403.825Z"/>
    <path class="secondary" d="M386.425,403.825C369.3,403.825 355.425,390.1 355.425,373.175C355.425,356.25 369.3,342.525 386.425,342.525C403.55,342.525 417.425,356.25 417.425,373.175C417.425,390.075 403.55,403.825 386.425,403.825Z"/>
    <path class="secondary" d="M487.2,403.825C470.075,403.825 456.2,390.1 456.2,373.175C456.2,356.25 470.075,342.525 487.2,342.525C504.325,342.525 518.2,356.25 518.2,373.175C518.2,390.075 504.325,403.825 487.2,403.825Z"/>
    <path class="secondary" d="M220.35,510.075C175.75,472.275 150,420.75 150,365.5C150,252.675 256.45,162.5 386.425,162.5C516.4,162.5 622.875,252.675 622.875,365.525C622.875,478.35 516.425,568.525 386.425,568.525C371.825,568.525 357.375,567.4 343.225,565.15C337.1,566.6 312.6,581.15 277.35,606.9C264.575,616.25 246.45,607.25 246.45,591.5L246.45,529.2C237.315,523.441 228.594,517.05 220.35,510.075ZM344.075,526.725C345.163,526.718 346.25,526.802 347.325,526.975C360.1,529.125 373.175,530.225 386.425,530.225C496.225,530.225 584.1,455.75 584.1,365.5C584.1,275.25 496.225,200.8 386.425,200.8C276.65,200.8 188.75,275.25 188.75,365.5C188.75,409.15 209.25,450.25 245.575,480.975C254.871,488.833 264.881,495.805 275.475,501.8C281.468,505.171 285.2,511.524 285.225,518.4L285.225,554.325C313.125,535.6 331.5,526.725 344.075,526.725Z"/>
    <path class="secondary" d="M407.035,583.149C424.615,581.925 442.044,579.08 459.1,574.65C480.162,581.077 502.431,582.532 524.15,578.9C525.009,578.753 525.879,578.678 526.75,578.675C534.5,578.675 544.675,583.15 559.5,592.65L559.5,577.05C559.517,571.556 562.491,566.477 567.275,563.775C573.626,560.185 579.627,556.008 585.2,551.3C606.8,533 619,508.6 619,482.75C619,474.075 617.625,465.65 615.025,457.575C621.569,445.406 626.822,432.586 630.7,419.325C643,438 650,459.625 650,482.75C650,517.875 633.625,550.625 605.375,574.575C600.7,578.55 595.75,582.225 590.5,585.625L590.5,622.15C590.5,634.725 576.025,641.95 565.8,634.475C553.325,625.375 543.3,618.625 535.8,614.225C532.325,612.225 529.5,610.75 526.575,609.55C518.05,610.825 509.375,611.475 500.6,611.475C465.316,611.475 432.73,600.91 407.035,583.149Z"/>
    <path class="primary" d="M400,800C179.075,800 0,620.925 0,400C0,179.075 179.075,0 400,0C620.925,0 800,179.075 800,400C800,620.925 620.925,800 400,800ZM407,583.125C432.7,600.9 465.3,611.475 500.6,611.475C509.375,611.475 518.05,610.825 526.575,609.55C529.5,610.75 532.325,612.225 535.8,614.225C543.3,618.625 553.325,625.375 565.8,634.475C576.025,641.95 590.5,634.725 590.5,622.15L590.5,585.625C595.75,582.225 600.7,578.55 605.375,574.575C633.625,550.625 650,517.875 650,482.75C650,459.625 643,438 630.7,419.325C626.822,432.586 621.569,445.406 615.025,457.575C617.625,465.65 619,474.075 619,482.75C619,508.6 606.8,533 585.2,551.3C579.627,556.008 573.626,560.185 567.275,563.775C562.491,566.477 559.517,571.556 559.5,577.05L559.5,592.65C544.675,583.15 534.5,578.675 526.75,578.675C525.879,578.678 525.009,578.753 524.15,578.9C502.431,582.532 480.162,581.077 459.1,574.65C442.04,579.081 424.608,581.926 407.025,583.15L407,583.125ZM220.35,510.075C228.594,517.05 237.315,523.441 246.45,529.2L246.45,591.5C246.45,607.25 264.575,616.25 277.35,606.9C312.6,581.15 337.1,566.6 343.225,565.15C357.375,567.4 371.825,568.525 386.425,568.525C516.425,568.525 622.875,478.35 622.875,365.525C622.875,252.675 516.4,162.5 386.425,162.5C256.45,162.5 150,252.675 150,365.5C150,420.75 175.75,472.275 220.35,510.075ZM344.075,526.725C331.5,526.725 313.125,535.6 285.225,554.325L285.225,518.4C285.2,511.524 281.468,505.171 275.475,501.8C264.881,495.805 254.871,488.833 245.575,480.975C209.25,450.25 188.75,409.15 188.75,365.5C188.75,275.25 276.65,200.8 386.425,200.8C496.225,200.8 584.1,275.25 584.1,365.5C584.1,455.75 496.225,530.225 386.425,530.225C373.175,530.225 360.1,529.125 347.325,526.975C346.25,526.802 345.163,526.718 344.075,526.725ZM285.65,403.825C302.775,403.825 316.65,390.075 316.65,373.175C316.65,356.25 302.775,342.525 285.65,342.525C268.525,342.525 254.65,356.25 254.65,373.175C254.65,390.1 268.525,403.825 285.65,403.825ZM386.425,403.825C403.55,403.825 417.425,390.075 417.425,373.175C417.425,356.25 403.55,342.525 386.425,342.525C369.3,342.525 355.425,356.25 355.425,373.175C355.425,390.1 369.3,403.825 386.425,403.825ZM487.2,403.825C504.325,403.825 518.2,390.075 518.2,373.175C518.2,356.25 504.325,342.525 487.2,342.525C470.075,342.525 456.2,356.25 456.2,373.175C456.2,390.1 470.075,403.825 487.2,403.825Z"/>
</svg>