<?xml version="1.0" encoding="UTF-8" standalone="no"?>
<!DOCTYPE svg PUBLIC "-//W3C//DTD SVG 1.1//EN" "http://www.w3.org/Graphics/SVG/1.1/DTD/svg11.dtd">
<svg width="100%" height="100%" viewBox="0 0 800 800" version="1.1" xmlns="http://www.w3.org/2000/svg" xmlns:xlink="http://www.w3.org/1999/xlink" xml:space="preserve" xmlns:serif="http://www.serif.com/" style="fill-rule:evenodd;clip-rule:evenodd;stroke-linejoin:round;stroke-miterlimit:2;">
    <g>
        <path d="M89.688,438.984L89.063,511.328L207.109,438.984L434.688,438.984C465.469,438.984 490.391,413.516 490.391,382.031L490.391,160.938C490.391,129.453 465.469,103.984 434.688,103.984L89.688,103.984C58.906,103.984 33.984,129.453 33.984,160.938L33.984,382.031C33.984,413.516 58.906,438.984 89.688,438.984Z" style="fill-rule:nonzero;"/>
        <path d="M89.063,522.734C87.109,522.734 85.234,522.266 83.516,521.25C79.922,519.219 77.734,515.391 77.734,511.328L78.281,449.375C46.719,443.828 22.656,415.781 22.656,382.031L22.656,160.938C22.656,123.281 52.734,92.656 89.688,92.656L434.609,92.656C471.562,92.656 501.641,123.281 501.641,160.938L501.641,382.031C501.641,419.688 471.562,450.313 434.609,450.313L210.313,450.313L95,521.016C93.125,522.109 91.094,522.734 89.063,522.734ZM89.688,115.313C65.234,115.313 45.313,135.781 45.313,160.938L45.313,382.031C45.313,407.188 65.234,427.656 89.766,427.656C92.813,427.656 95.703,428.828 97.813,431.016C99.922,433.125 101.094,436.094 101.094,439.062L100.625,491.016L201.25,429.297C203.047,428.203 205.078,427.656 207.188,427.656L434.766,427.656C459.297,427.656 479.219,407.187 479.219,382.031L479.219,160.938C479.219,135.781 459.297,115.313 434.766,115.313L89.688,115.313Z" style="fill-rule:nonzero;"/>
        <path d="M695.391,603.984L696.25,695.703L543.438,603.984L248.75,603.984C208.906,603.984 176.562,571.641 176.562,531.797L176.562,251.641C176.562,211.797 208.906,179.453 248.75,179.453L695.391,179.453C735.234,179.453 767.578,211.797 767.578,251.641L767.578,531.875C767.578,571.641 735.313,603.984 695.391,603.984Z" style="fill:rgb(250,252,252);fill-rule:nonzero;"/>
        <path d="M696.25,707.031C694.219,707.031 692.188,706.484 690.391,705.391L540.313,615.313L248.75,615.313C202.734,615.313 165.234,577.891 165.234,531.797L165.234,251.641C165.234,205.625 202.656,168.125 248.75,168.125L695.391,168.125C741.406,168.125 778.906,205.547 778.906,251.641L778.906,531.875C778.906,574.063 747.5,608.984 706.875,614.609L707.656,695.703C707.656,699.766 705.547,703.594 701.953,705.625C700.156,706.484 698.203,707.031 696.25,707.031ZM248.75,190.781C215.234,190.781 187.891,218.047 187.891,251.641L187.891,531.875C187.891,565.391 215.156,592.734 248.75,592.734L543.437,592.734C545.469,592.734 547.5,593.281 549.297,594.375L684.844,675.703L684.219,604.219C684.219,601.172 685.391,598.281 687.5,596.172C689.609,594.063 692.5,592.813 695.547,592.813C729.063,592.813 756.406,565.547 756.406,531.953L756.406,251.641C756.406,218.125 729.141,190.781 695.547,190.781L248.75,190.781Z" style="fill-rule:nonzero;"/>
        <path d="M293.75,390.469C293.75,409.669 310.431,425.469 330.703,425.469C350.975,425.469 367.656,409.669 367.656,390.469C367.656,371.268 350.975,355.469 330.703,355.469C310.431,355.469 293.75,371.268 293.75,390.469Z" style="fill-rule:nonzero;"/>
        <path d="M435.156,390.469C435.156,409.669 451.837,425.469 472.109,425.469C492.381,425.469 509.062,409.669 509.062,390.469C509.062,371.268 492.381,355.469 472.109,355.469C451.837,355.469 435.156,371.268 435.156,390.469Z" style="fill-rule:nonzero;"/>
        <path d="M576.484,390.469C576.484,409.669 593.166,425.469 613.438,425.469C633.709,425.469 650.391,409.669 650.391,390.469C650.391,371.268 633.709,355.469 613.438,355.469C593.166,355.469 576.484,371.268 576.484,390.469Z" style="fill-rule:nonzero;"/>
    </g>
</svg>
