<?xml version="1.0" encoding="UTF-8" standalone="no"?>
<!DOCTYPE svg PUBLIC "-//W3C//DTD SVG 1.1//EN" "http://www.w3.org/Graphics/SVG/1.1/DTD/svg11.dtd">
<svg width="100%" height="100%" viewBox="0 0 800 800" version="1.1" xmlns="http://www.w3.org/2000/svg" xmlns:xlink="http://www.w3.org/1999/xlink" xml:space="preserve" xmlns:serif="http://www.serif.com/" style="fill-rule:evenodd;clip-rule:evenodd;stroke-linejoin:round;stroke-miterlimit:2;">
    <path d="M643.75,549.316C643.75,580.867 618.172,606.444 586.622,606.444L474.937,606.444C468.57,606.444 462.625,609.625 459.092,614.923L429.605,659.153C423.006,669.055 411.897,675 400,675C388.103,675 376.994,669.055 370.394,659.155L340.906,614.925C337.375,609.627 331.428,606.445 325.061,606.445L213.378,606.445C181.827,606.445 156.25,580.867 156.25,549.317L156.25,244.63C156.25,213.078 181.828,187.5 213.378,187.5L586.62,187.5C618.172,187.5 643.75,213.078 643.75,244.628L643.75,549.316ZM400,358.886C378.98,358.886 361.914,375.952 361.914,396.972C361.914,417.992 378.98,435.058 400,435.058C421.02,435.058 438.086,417.992 438.086,396.972C438.086,375.952 421.02,358.886 400,358.886ZM259.081,358.886C238.061,358.886 220.995,375.952 220.995,396.972C220.995,417.992 238.061,435.058 259.081,435.058C280.101,435.058 297.167,417.992 297.167,396.972C297.167,375.952 280.101,358.886 259.081,358.886ZM540.919,358.886C519.899,358.886 502.833,375.952 502.833,396.972C502.833,417.992 519.899,435.058 540.919,435.058C561.939,435.058 579.005,417.992 579.005,396.972C579.005,375.952 561.939,358.886 540.919,358.886Z" style="fill:white;"/>
    <g id="CodingBunny_iconchat4">
        <g>
            <circle cx="400" cy="396.972" r="38.086"/>
            <circle cx="540.919" cy="396.972" r="38.086"/>
            <circle cx="259.081" cy="396.972" r="38.086"/>
            <path d="M400,0C179.086,0 0,179.086 0,400C0,620.914 179.086,800 400,800C620.914,800 800,620.914 800,400C800,179.086 620.914,0 400,0ZM643.75,549.316C643.75,580.867 618.172,606.444 586.622,606.444L474.937,606.444C468.57,606.444 462.625,609.625 459.092,614.923L429.605,659.153C423.006,669.055 411.897,675 400,675C388.103,675 376.994,669.055 370.394,659.155L340.906,614.925C337.375,609.627 331.428,606.445 325.061,606.445L213.378,606.445C181.827,606.445 156.25,580.867 156.25,549.317L156.25,244.63C156.25,213.078 181.828,187.5 213.378,187.5L586.62,187.5C618.172,187.5 643.75,213.078 643.75,244.628L643.75,549.316Z" style="fill-rule:nonzero;"/>
        </g>
    </g>
</svg>
