<?xml version="1.0" encoding="UTF-8" standalone="no"?>
<!DOCTYPE svg PUBLIC "-//W3C//DTD SVG 1.1//EN" "http://www.w3.org/Graphics/SVG/1.1/DTD/svg11.dtd">
<svg width="100%" height="100%" viewBox="0 0 800 800" version="1.1" xmlns="http://www.w3.org/2000/svg" xmlns:xlink="http://www.w3.org/1999/xlink" xml:space="preserve" xmlns:serif="http://www.serif.com/" style="fill-rule:evenodd;clip-rule:evenodd;stroke-linejoin:round;stroke-miterlimit:2;">
    <g>
        <path d="M800,400C800,620.766 620.766,800 400,800C179.234,800 0,620.766 0,400C0,179.234 179.234,0 400,0C620.766,0 800,179.234 800,400Z"/>
    </g>
    <g>
        <path d="M400,622.222C522.729,622.222 622.222,522.729 622.222,400C622.222,277.27 522.729,177.778 400,177.778C277.27,177.778 177.778,277.27 177.778,400C177.778,435.549 186.125,469.147 200.966,498.944C204.91,506.862 206.222,515.913 203.936,524.458L190.7,573.927C184.954,595.4 204.6,615.044 226.074,609.3L275.542,596.064C284.087,593.778 293.138,595.091 301.056,599.033C330.853,613.876 364.451,622.222 400,622.222Z" style="fill:white;fill-rule:nonzero;"/>
        <path d="M288.889,400C288.889,387.727 298.838,377.778 311.111,377.778C323.384,377.778 333.333,387.727 333.333,400C333.333,412.273 323.384,422.222 311.111,422.222C298.838,422.222 288.889,412.273 288.889,400Z"/>
        <path d="M377.778,400C377.778,387.727 387.727,377.778 400,377.778C412.273,377.778 422.222,387.727 422.222,400C422.222,412.273 412.273,422.222 400,422.222C387.727,422.222 377.778,412.273 377.778,400Z"/>
        <path d="M466.667,400C466.667,387.727 476.616,377.778 488.889,377.778C501.162,377.778 511.111,387.727 511.111,400C511.111,412.273 501.162,422.222 488.889,422.222C476.616,422.222 466.667,412.273 466.667,400Z"/>
    </g>
</svg>
