<?xml version="1.0" encoding="UTF-8" standalone="no"?>
<!DOCTYPE svg PUBLIC "-//W3C//DTD SVG 1.1//EN" "http://www.w3.org/Graphics/SVG/1.1/DTD/svg11.dtd">
<svg width="100%" height="100%" viewBox="0 0 800 800" version="1.1" xmlns="http://www.w3.org/2000/svg" xmlns:xlink="http://www.w3.org/1999/xlink" xml:space="preserve" xmlns:serif="http://www.serif.com/" style="fill-rule:evenodd;clip-rule:evenodd;">
    <g>
        <path d="M800,400C800,620.766 620.766,800 400,800C179.234,800 0,620.766 0,400C0,179.234 179.234,0 400,0C620.766,0 800,179.234 800,400Z"/>
    </g>
    <g>
        <path d="M564.932,233.092C520.889,189.019 462.325,164.733 399.929,164.707C271.352,164.707 166.716,269.309 166.665,397.88C166.65,438.978 177.388,479.096 197.799,514.459L164.707,635.292L288.362,602.868C322.432,621.448 360.792,631.239 399.829,631.255L399.929,631.255C528.485,631.255 633.136,526.634 633.191,398.069C633.213,335.757 608.97,277.169 564.932,233.092ZM399.929,591.871L399.853,591.871C365.058,591.852 330.937,582.511 301.175,564.85L294.092,560.652L220.712,579.891L240.303,508.372L235.688,501.04C216.279,470.179 206.033,434.515 206.048,397.895C206.09,291.031 293.059,204.092 400.002,204.092C451.79,204.113 500.464,224.3 537.071,260.932C573.676,297.564 593.82,346.262 593.805,398.052C593.76,504.92 506.787,591.871 399.929,591.871Z" style="fill:white;fill-rule:nonzero;"/>
        <path d="M175.415,621.884L206.996,506.571C187.512,472.823 177.266,434.535 177.279,395.322C177.33,272.626 277.187,172.805 399.879,172.805C459.428,172.832 515.318,196.007 557.34,238.068C599.371,280.129 622.504,336.037 622.48,395.496C622.429,518.195 522.566,618.025 399.888,618.025C399.879,618.025 399.894,618.025 399.888,618.025L399.789,618.025C362.536,618.013 325.931,608.661 293.42,590.942L175.415,621.884Z" style="fill-rule:nonzero;"/>
        <path d="M342.287,298.887C337.972,289.292 333.428,289.1 329.322,288.932C325.964,288.788 322.119,288.797 318.281,288.797C314.439,288.797 308.197,290.24 302.918,296.005C297.636,301.771 282.75,315.708 282.75,344.054C282.75,372.403 303.398,399.794 306.276,403.641C309.157,407.483 346.135,467.512 404.696,490.606C453.365,509.798 463.269,505.98 473.833,505.02C484.397,504.059 507.92,491.086 512.722,477.631C517.524,464.18 517.524,452.65 516.083,450.24C514.643,447.839 510.801,446.398 505.039,443.517C499.277,440.636 470.952,426.696 465.67,424.775C460.388,422.854 456.547,421.894 452.705,427.662C448.864,433.425 437.828,446.398 434.467,450.24C431.106,454.09 427.745,454.57 421.982,451.689C416.22,448.799 397.664,442.722 375.651,423.094C358.523,407.824 346.96,388.965 343.598,383.197C340.237,377.435 343.238,374.314 346.128,371.441C348.715,368.86 351.891,364.716 354.772,361.351C357.647,357.987 358.607,355.586 360.528,351.745C362.449,347.897 361.488,344.533 360.048,341.652C358.607,338.771 347.41,310.279 342.287,298.887Z" style="fill:white;"/>
        <path d="M563.027,232.351C519.489,188.784 461.597,164.778 399.918,164.75C272.817,164.75 169.382,268.152 169.331,395.247C169.316,435.874 179.931,475.531 200.108,510.488L167.396,629.933L289.632,597.881C323.311,616.248 361.23,625.927 399.819,625.942L399.918,625.942C526.998,625.942 630.448,522.522 630.502,395.433C630.523,333.838 606.559,275.922 563.027,232.351ZM399.918,587.011L399.843,587.011C365.447,586.993 331.717,577.759 302.297,560.301L295.295,556.15L222.758,575.169L242.124,504.471L237.562,497.223C218.376,466.717 208.247,431.462 208.262,395.262C208.304,289.625 294.275,203.684 399.99,203.684C451.184,203.705 499.298,223.66 535.486,259.872C571.671,296.084 591.583,344.222 591.568,395.419C591.523,501.059 505.549,587.011 399.918,587.011Z" style="fill:white;fill-rule:nonzero;"/>
    </g>
</svg>
