<?xml version="1.0" encoding="UTF-8" standalone="no"?>
<!DOCTYPE svg PUBLIC "-//W3C//DTD SVG 1.1//EN" "http://www.w3.org/Graphics/SVG/1.1/DTD/svg11.dtd">
<svg width="100%" height="100%" viewBox="0 0 800 800" version="1.1" xmlns="http://www.w3.org/2000/svg" xmlns:xlink="http://www.w3.org/1999/xlink" xml:space="preserve" xmlns:serif="http://www.serif.com/" style="fill-rule:evenodd;clip-rule:evenodd;stroke-linejoin:round;stroke-miterlimit:2;">
    <path d="M400,199.999C422.092,199.999 440,217.908 440,240C440,262.091 422.092,280 400,280C377.908,280 360,262.091 360,240C360,217.908 377.908,199.999 400,199.999Z" style="fill:white;"/>
    <path d="M400,630.001C383.432,630.001 370,616.568 370,600.001L370,360C370,343.432 383.432,330 400,330C416.568,330 430,343.432 430,360L430,600.001C430,616.568 416.568,630.001 400,630.001Z" style="fill:white;"/>
    <g id="CodingBunny_iconinfo" transform="matrix(1.2,0,0,1.2,-80.0005,-80.0005)">
        <path d="M733.333,400C733.333,584.093 584.093,733.333 400,733.333C215.905,733.333 66.667,584.093 66.667,400C66.667,215.905 215.905,66.667 400,66.667C584.093,66.667 733.333,215.905 733.333,400ZM400,591.667C413.807,591.667 425,580.473 425,566.667L425,366.667C425,352.86 413.807,341.667 400,341.667C386.193,341.667 375,352.86 375,366.667L375,566.667C375,580.473 386.193,591.667 400,591.667ZM400,233.333C418.41,233.333 433.333,248.257 433.333,266.667C433.333,285.076 418.41,300 400,300C381.59,300 366.667,285.076 366.667,266.667C366.667,248.257 381.59,233.333 400,233.333Z"/>
    </g>
</svg>
